<?xml version="1.0" standalone="no"?><!DOCTYPE svg PUBLIC "-//W3C//DTD SVG 1.1//EN" "http://www.w3.org/Graphics/SVG/1.1/DTD/svg11.dtd"><svg t="1750488802861" class="icon" viewBox="0 0 1024 1024" version="1.1" xmlns="http://www.w3.org/2000/svg" p-id="1551" xmlns:xlink="http://www.w3.org/1999/xlink" width="200" height="200"><path d="M298.041 365.963c0 118.863 95.09 213.959 213.959 213.959 118.868 0 213.963-95.096 213.963-213.959C725.964 247.096 630.868 152 512 152s-213.959 95.096-213.959 213.963z m0 0" fill="#e6e6e6" p-id="1552"></path><path d="M719.172 576.529c-16.981-13.588-40.759-13.588-57.74 3.393-37.356 37.36-91.697 61.133-149.432 61.133-57.736 0-112.077-23.773-149.433-61.133-16.981-16.981-40.754-16.981-57.736-3.393-64.531 54.337-112.076 125.659-129.057 224.148-6.791 40.754 20.38 71.323 61.134 71.323h550.184c40.758 0 67.924-33.962 61.132-71.323-13.582-95.095-61.131-166.413-129.052-224.148z m0 0" fill="#e6e6e6" p-id="1553"></path></svg>